<svg xmlns="http://www.w3.org/2000/svg" viewBox="0 0 200 200" role="img" aria-label="Flow Sparring">
  <defs>
    <path id="fs-top-arc" d="M 36,100 A 64,64 0 0 1 164,100" fill="none"/>
    <path id="fs-bot-arc" d="M 36,100 A 64,64 0 0 0 164,100" fill="none"/>
  </defs>

  <circle cx="100" cy="100" r="96" fill="none" stroke="currentColor" stroke-width="4"/>
  <circle cx="100" cy="100" r="86" fill="none" stroke="currentColor" stroke-width="1"/>

  <text font-family="Anton, Impact, 'Arial Narrow', sans-serif" font-size="22" fill="currentColor" letter-spacing="4" font-weight="400">
    <textPath href="#fs-top-arc" startOffset="50%" text-anchor="middle">FLOW</textPath>
  </text>

  <text font-family="Anton, Impact, 'Arial Narrow', sans-serif" font-size="20" fill="currentColor" letter-spacing="3.5" font-weight="400">
    <textPath href="#fs-bot-arc" startOffset="50%" text-anchor="middle">SPARRING</textPath>
  </text>

  <circle cx="16" cy="100" r="3" fill="currentColor"/>
  <circle cx="184" cy="100" r="3" fill="currentColor"/>

  <g fill="currentColor" transform="translate(72,130)">
    <circle cx="-3" cy="-34" r="5.5"/>
    <path d="M -7,-27 L 7,-27 L 5,-6 L -5,-6 Z"/>
    <path d="M -8,-24 L -12,-18 L -12,-12 L -8,-12 L -5,-20 Z"/>
    <path d="M 7,-24 L 16,-23 L 22,-20 L 20,-15 L 13,-17 L 7,-18 Z"/>
    <circle cx="25" cy="-18" r="5"/>
    <path d="M -4,-6 L -9,3 L -5,5 L -1,-3 Z"/>
    <path d="M 2,-3 L 6,5 L 10,3 L 4,-6 Z"/>
  </g>

  <g fill="currentColor" transform="translate(128,130) scale(-1,1)">
    <circle cx="-3" cy="-34" r="5.5"/>
    <path d="M -7,-27 L 7,-27 L 5,-6 L -5,-6 Z"/>
    <path d="M -8,-24 L -12,-18 L -12,-12 L -8,-12 L -5,-20 Z"/>
    <path d="M 7,-24 L 16,-23 L 22,-20 L 20,-15 L 13,-17 L 7,-18 Z"/>
    <circle cx="25" cy="-18" r="5"/>
    <path d="M -4,-6 L -9,3 L -5,5 L -1,-3 Z"/>
    <path d="M 2,-3 L 6,5 L 10,3 L 4,-6 Z"/>
  </g>
</svg>
